
<svg xmlns="http://www.w3.org/2000/svg" version="1.1" xmlns:xlink="http://www.w3.org/1999/xlink" preserveAspectRatio="none" x="0px" y="0px" width="500px" height="312px" viewBox="0 0 500 312">
<defs>
<image id="____jpg" x="0" y="0" width="1055" height="659" xlink:href="./images/____jpg.jpg"/>

<g id="__0_Layer17_0_FILL">
<path fill="#231916" stroke="none" d="
M 3.9 10.05
Q 4 10.15 4.3 10.15
L 5.85 10 6.6 10 6.7 9.9 6.45 9.65
Q 6.2 9.45 5.95 9.45
L 5.45 9.55
Q 4.1 9.7 3.95 9.7 3.8 9.7 3.8 9.85
L 3.9 10.05 Z"/>
</g>

<g id="__0_Layer15_0_FILL">
<path fill="#231916" stroke="none" d="
M 6.35 7.9
L 5.85 7.8 4.2 8.15
Q 3.85 8.15 3.85 8.3 3.85 8.4 4.1 8.5
L 4.5 8.55 6.25 8.3
Q 6.65 8.2 6.65 8.05
L 6.35 7.9 Z"/>
</g>

<g id="__0_Layer13_0_FILL">
<path fill="#231916" stroke="none" d="
M 3.8 6.65
L 3.65 6.7
Q 3.65 6.85 3.85 6.9
L 4.15 6.95 4.5 6.9
Q 5.35 6.7 5.95 6.7
L 6.3 6.7
Q 6.5 6.7 6.5 6.9
L 6.5 9.55
Q 6.45 9.75 6.35 9.75
L 6.7 10.85
Q 6.9 10.85 7.1 10.55 7.35 10.2 7.35 9.7
L 7.15 8.15 7.2 6.9 7.3 6.7
Q 7.3 6.5 6.85 6.25
L 6.5 6.05 5.85 6.25
Q 4.5 6.6 3.8 6.65 Z"/>
</g>

<g id="__0_Layer11_0_FILL">
<path fill="#231916" stroke="none" d="
M 3.85 6.65
L 3.5 6.55
Q 3.35 6.55 3.35 6.7
L 3.4 6.9 3.55 9.8 3.5 10 3.6 10.25 3.8 10.5
Q 3.95 10.5 4 10.35
L 4.1 10 4.1 6.9
Q 4.1 6.75 3.85 6.65 Z"/>
</g>

<g id="__0_Layer9_0_FILL">
<path fill="#231916" stroke="none" d="
M 11.1 7.8
L 11.3 7.65 11.1 7.5
Q 9.55 7 8.85 6.6 8.15 6.25 6.75 5 6.05 4.45 5.7 4.45 5.45 4.45 5.45 4.6
L 5.55 4.7
Q 5.8 4.8 6.3 5.2
L 8.9 7.9
Q 9.2 8.05 9.5 8.05
L 11.1 7.8 Z"/>
</g>

<g id="__0_Layer7_0_FILL">
<path fill="#231916" stroke="none" d="
M 5.75 0.6
Q 5.75 0.4 5.4 0.2 5.05 0 4.85 0 4.65 0 4.6 0.2
L 4.65 0.4 4.75 1.05
Q 4.65 2.05 4.45 2.95 4 4.35 3.65 4.95 3 6 2.45 6.55 1.9 7.15 0.3 8.1 0 8.25 0 8.35
L 0.15 8.4 0.8 8.2
Q 2.05 7.9 3 6.85 4.05 5.85 4.55 4.55 5.05 3.3 5.4 1.7
L 5.65 0.85
Q 5.75 0.75 5.75 0.6 Z"/>
</g>

<g id="__0_Layer5_0_FILL">
<path fill="#231916" stroke="none" d="
M 9 4.05
L 8.4 3.85 8.05 3.95 3.35 4.55
Q 2.55 4.75 1.4 4.75 1.1 4.75 1.1 4.9 1.1 5.05 1.55 5.2
L 2.15 5.35
Q 2.35 5.35 2.55 5.25 3.75 4.9 4.8 4.8 6.3 4.65 7.2 4.65
L 8.85 4.7
Q 9.45 4.7 9.45 4.5 9.45 4.3 9 4.05 Z"/>
</g>

<g id="__0_Layer3_0_FILL">
<path fill="#231916" stroke="none" d="
M 7.55 3
L 7.25 2.8 6.75 2.75 6.25 2.8
Q 4.2 3.2 3 3.3 2.6 3.3 2.6 3.45 2.6 3.55 2.85 3.65
L 3.25 3.7 7.15 3.2
Q 7.55 3.1 7.55 3 Z"/>
</g>

<g id="__0_Layer1_0_FILL">
<path fill="#231916" stroke="none" d="
M 7.6 1.4
L 7.1 1.25 6.85 1.3
Q 6.1 1.5 5.4 1.55 4.15 1.75 3.05 1.85 2.55 1.85 2.55 1.95
L 2.75 2.15
Q 2.85 2.25 3.35 2.25
L 5.85 2.05
Q 7.1 1.9 7.45 1.75 7.75 1.75 7.75 1.6 7.75 1.5 7.6 1.4 Z"/>
</g>

<g id="__0_Layer0_0_FILL">
<path fill="#FF0000" stroke="none" d="
M 2.05 1.25
L 1.65 1.25 1.65 2.65 2.05 2.65 2.05 1.25 Z"/>
</g>
</defs>

<g transform="matrix( 0.4766845703125, 0, 0, 0.4748992919921875, 0,-1) ">
<use xlink:href="#____jpg"/>
</g>

<g transform="matrix( 11.988861083984375, 0, 0, 11.740737915039062, 189.3,84.7) ">
<g transform="matrix( 1, 0, 0, 1, 0,0) ">
<use xlink:href="#__0_Layer17_0_FILL"/>
</g>

<g transform="matrix( 1, 0, 0, 1, 0,0) ">
<use xlink:href="#__0_Layer15_0_FILL"/>
</g>

<g transform="matrix( 1, 0, 0, 1, -0.05,0) ">
<use xlink:href="#__0_Layer13_0_FILL"/>
</g>

<g transform="matrix( 1, 0, 0, 1, 0,0) ">
<use xlink:href="#__0_Layer11_0_FILL"/>
</g>

<g transform="matrix( 1, 0, 0, 1, 0,0) ">
<use xlink:href="#__0_Layer9_0_FILL"/>
</g>

<g transform="matrix( 1, 0, 0, 1, 0,0) ">
<use xlink:href="#__0_Layer7_0_FILL"/>
</g>

<g transform="matrix( 1, 0, 0, 1, 0,0) ">
<use xlink:href="#__0_Layer5_0_FILL"/>
</g>

<g transform="matrix( 1, 0, 0, 1, 0,0) ">
<use xlink:href="#__0_Layer3_0_FILL"/>
</g>

<g transform="matrix( 1, 0, 0, 1, 0,0) ">
<use xlink:href="#__0_Layer1_0_FILL"/>
</g>

<g transform="matrix( 1, 0, 0, 1, 0,0) ">
<use xlink:href="#__0_Layer0_0_FILL"/>
</g>
</g>
</svg>
