
<svg xmlns="http://www.w3.org/2000/svg" version="1.1" xmlns:xlink="http://www.w3.org/1999/xlink" preserveAspectRatio="none" x="0px" y="0px" width="500px" height="312px" viewBox="0 0 500 312">
<defs>
<image id="____jpg" x="0" y="0" width="1055" height="659" xlink:href="./images/____jpg.jpg"/>

<g id="Mask___0_1_MASK_0_FILL">
<path fill="#FFFFFF" stroke="none" d="
M 2.05 1.25
L 1.65 1.25 1.65 2.65 2.05 2.65 2.05 1.25 Z"/>
</g>

<g id="__0_Layer1_0_FILL">
<path fill="#231916" stroke="none" d="
M 7.6 1.4
L 7.1 1.25 6.85 1.3
Q 6.1 1.5 5.4 1.55 4.15 1.75 3.05 1.85 2.55 1.85 2.55 1.95
L 2.75 2.15
Q 2.85 2.25 3.35 2.25
L 5.85 2.05
Q 7.1 1.9 7.45 1.75 7.75 1.75 7.75 1.6 7.75 1.5 7.6 1.4 Z"/>
</g>
</defs>

<g transform="matrix( 0.4766845703125, 0, 0, 0.4748992919921875, 0,-1) ">
<use xlink:href="#____jpg"/>
</g>

<g transform="matrix( 11.988861083984375, 0, 0, 11.740737915039062, 189.3,84.7) ">
<mask id="Mask_Mask_1">
<g transform="matrix( 1, 0, 0, 1, 0,0) ">
<use xlink:href="#Mask___0_1_MASK_0_FILL"/>
</g>
</mask>

<g mask="url(#Mask_Mask_1)">
<g transform="matrix( 1, 0, 0, 1, 0,0) ">
<use xlink:href="#__0_Layer1_0_FILL"/>
</g>
</g>
</g>
</svg>
